<svg xmlns="http://www.w3.org/2000/svg" width="180" height="54" viewBox="0 0 180 54" role="img" aria-label="build123d-cad commit activity sparkline">
  <rect width="180" height="54" fill="none"/>
  <path d="M3 39 C9 39 13 25 18 33 S28 45 34 28 S44 18 50 31 S59 35 65 21 S75 8 82 19 S92 33 98 16 S108 26 114 20 S124 37 130 24 S140 25 146 21 S156 32 162 26 S172 25 177 31" fill="none" stroke="#2ea043" stroke-width="3.2" stroke-linecap="round" stroke-linejoin="round"/>
  <path d="M3 39 C9 39 13 25 18 33 S28 45 34 28 S44 18 50 31 S59 35 65 21 S75 8 82 19 S92 33 98 16 S108 26 114 20 S124 37 130 24 S140 25 146 21 S156 32 162 26 S172 25 177 31 L177 50 L3 50 Z" fill="#2ea043" opacity="0.16"/>
</svg>
